<svg xmlns="http://www.w3.org/2000/svg" viewBox="0 0 128 128"><defs><style>.cls-1{fill:#ffcf01}.cls-2{fill:#f9a01b}.cls-3{fill:#a64d2c}</style></defs><title/><g id="_03_Bitcoin" data-name="03 Bitcoin"><circle cx="65.3" cy="62.4" r="48" class="cls-1"/><circle cx="65.3" cy="62.4" r="36" class="cls-2"/><path d="M63.7,18.6v-1a1,1,0,0,0-2,0v1A1,1,0,0,0,63.7,18.6Z" class="cls-3"/><path d="M58,18.82l-.12-1a1,1,0,0,0-2,.24l.12,1A1,1,0,0,0,58,18.82Z" class="cls-3"/><path d="M69.42,19.07l.12-1a1,1,0,0,0-2-.24l-.12,1A1,1,0,0,0,69.42,19.07Z" class="cls-3"/><path d="M15.7,66.6a1,1,0,0,0,0-2h-1a1,1,0,0,0,0,2Z" class="cls-3"/><path d="M15.18,72.44l1-.12a1,1,0,0,0-.24-2l-1,.12a1,1,0,0,0,.12,2Z" class="cls-3"/><path d="M14.94,60.74l1,.12H16a1,1,0,0,0,.12-2l-1-.12A1,1,0,0,0,14.94,60.74Z" class="cls-3"/><path d="M16.82,55.36A47.11,47.11,0,0,1,52.46,19.73a1,1,0,0,0-.43-2A49.12,49.12,0,0,0,14.87,54.92,1,1,0,0,0,16.82,55.36Z" class="cls-3"/><path d="M52.46,111.47A47.11,47.11,0,0,1,16.82,75.84a1,1,0,0,0-2,.43A49.12,49.12,0,0,0,52,113.42,1,1,0,0,0,52.46,111.47Z" class="cls-3"/><path d="M72.94,19.73a47.11,47.11,0,0,1,35.64,35.63,1,1,0,0,0,2-.43A49.12,49.12,0,0,0,73.38,17.78,1,1,0,0,0,72.94,19.73Z" class="cls-3"/><path d="M108.58,75.84a47.11,47.11,0,0,1-35.64,35.63,1,1,0,0,0,.43,2,49.12,49.12,0,0,0,37.16-37.14A1,1,0,0,0,108.58,75.84Z" class="cls-3"/><path d="M61.7,112.6v1a1,1,0,0,0,2,0v-1A1,1,0,0,0,61.7,112.6Z" class="cls-3"/><path d="M67.44,112.37l.12,1a1,1,0,0,0,2-.24l-.12-1A1,1,0,0,0,67.44,112.37Z" class="cls-3"/><path d="M56,112.13l-.12,1a1,1,0,0,0,2,.24l.12-1A1,1,0,0,0,56,112.13Z" class="cls-3"/><path d="M110.7,64.6h-1a1,1,0,0,0,0,2h1A1,1,0,0,0,110.7,64.6Z" class="cls-3"/><path d="M109.23,58.88a1,1,0,0,0,.12,2h.12l1-.12a1,1,0,0,0-.24-2Z" class="cls-3"/><path d="M110.47,70.46l-1-.12a1,1,0,0,0-.24,2l1,.12h.12A1,1,0,0,0,110.47,70.46Z" class="cls-3"/><path d="M90.27,90.27a36.91,36.91,0,0,0,0-49.35,1,1,0,0,0-1.49,1.33,34.92,34.92,0,0,1,0,46.68A1,1,0,0,0,90.27,90.27Z" class="cls-3"/><path d="M38,93.17a36.91,36.91,0,0,0,49.35,0A1,1,0,0,0,86,91.68a34.91,34.91,0,0,1-46.68,0A1,1,0,0,0,38,93.17Z" class="cls-3"/><path d="M35.13,40.92a36.91,36.91,0,0,0,0,49.35,1,1,0,0,0,1.49-1.33,34.92,34.92,0,0,1,0-46.68A1,1,0,0,0,35.13,40.92Z" class="cls-3"/><path d="M87.38,38A36.91,36.91,0,0,0,38,38a1,1,0,0,0,1.33,1.49,34.91,34.91,0,0,1,46.68,0A1,1,0,0,0,87.38,38Z" class="cls-3"/><path d="M52.7,81.23h5.72V85a1,1,0,0,0,2,0V81.23h2.16V85a1,1,0,0,0,2,0V81.18C75,80.25,77.18,65.94,67.5,61.93A6.59,6.59,0,0,0,64.57,50V46.19a1,1,0,0,0-2,0V50H60.42V46.19a1,1,0,0,0-2,0V50H52.7a1,1,0,0,0,0,2h11a4.6,4.6,0,0,1,0,9.2H60a1,1,0,0,0,0,2h3.64a8,8,0,1,1-.1,16.07H52.7A1,1,0,0,0,52.7,81.23Z" class="cls-3"/><path d="M58,77.23V54a1,1,0,0,0-2,0V77.23A1,1,0,0,0,58,77.23Z" class="cls-3"/></g></svg>